<mxfile host="app.diagrams.net" agent="Mozilla/5.0 (Windows NT 10.0; Win64; x64) AppleWebKit/537.36 (KHTML, like Gecko) Chrome/138.0.0.0 Safari/537.36" version="28.0.4">
  <diagram name="Page-1" id="mSCrcHiy_M-U9cj9anIV">
    <mxGraphModel dx="347" dy="199" grid="1" gridSize="10" guides="1" tooltips="1" connect="1" arrows="1" fold="1" page="1" pageScale="1" pageWidth="850" pageHeight="1100" math="0" shadow="0">
      <root>
        <mxCell id="0" />
        <mxCell id="1" parent="0" />
        <mxCell id="SvVKt492CZ6028g6mfod-25" value="" style="rounded=0;whiteSpace=wrap;html=1;fontSize=12;opacity=50;fillColor=#fff2cc;strokeColor=#d6b656;" parent="1" vertex="1">
          <mxGeometry x="198" y="560" width="100" height="210" as="geometry" />
        </mxCell>
        <mxCell id="SvVKt492CZ6028g6mfod-26" value="" style="rounded=0;whiteSpace=wrap;html=1;fontSize=12;opacity=50;fillColor=#fff2cc;strokeColor=#d6b656;" parent="1" vertex="1">
          <mxGeometry x="298" y="490" width="370" height="280" as="geometry" />
        </mxCell>
        <mxCell id="SvVKt492CZ6028g6mfod-27" value="&lt;font&gt;&lt;b style=&quot;&quot;&gt;CPU&lt;/b&gt;&lt;/font&gt;" style="whiteSpace=wrap;html=1;fillColor=#CDE1EC;strokeColor=#8EC1DA;" parent="1" vertex="1">
          <mxGeometry x="208" y="570" width="80" height="190" as="geometry" />
        </mxCell>
        <mxCell id="SvVKt492CZ6028g6mfod-32" value="&lt;p style=&quot;line-height: 460%; font-size: 10px;&quot;&gt;&lt;span style=&quot;font-size: 10px;&quot;&gt;&lt;b&gt;L1 CACHE&lt;/b&gt;&lt;/span&gt;&lt;/p&gt;" style="rounded=0;whiteSpace=wrap;html=1;fillColor=light-dark(#ededed, #1f2f1e);strokeColor=light-dark(#030303, #446e2c);fontSize=10;" parent="1" vertex="1">
          <mxGeometry x="210" y="790" width="70" height="30" as="geometry" />
        </mxCell>
        <mxCell id="SvVKt492CZ6028g6mfod-33" value="&lt;b style=&quot;&quot;&gt;&lt;font style=&quot;font-size: 12px;&quot;&gt;NON-COHERENT CLUSTER INTERCONNECT&lt;/font&gt;&lt;/b&gt;" style="rounded=0;whiteSpace=wrap;html=1;fillColor=#f6d6c2;strokeColor=#d47264;fontSize=15;" parent="1" vertex="1">
          <mxGeometry x="308" y="518" width="350" height="40" as="geometry" />
        </mxCell>
        <mxCell id="SvVKt492CZ6028g6mfod-35" value="&lt;b&gt;&lt;font style=&quot;font-size: 13px;&quot;&gt;CLUSTER 1&lt;/font&gt;&lt;/b&gt;" style="text;html=1;strokeColor=none;fillColor=none;align=center;verticalAlign=middle;whiteSpace=wrap;rounded=0;fontSize=15;opacity=50;" parent="1" vertex="1">
          <mxGeometry x="438.25" y="491" width="89.5" height="30" as="geometry" />
        </mxCell>
        <mxCell id="SvVKt492CZ6028g6mfod-81" value="&lt;font style=&quot;font-size: 12px;&quot;&gt;&lt;b style=&quot;&quot;&gt;L2 CACHE&lt;/b&gt;&lt;/font&gt;" style="rounded=0;whiteSpace=wrap;html=1;fontSize=15;fillColor=#EDEDED;" parent="1" vertex="1">
          <mxGeometry x="304" y="891" width="100" height="40" as="geometry" />
        </mxCell>
        <mxCell id="SvVKt492CZ6028g6mfod-82" value="&lt;font style=&quot;font-size: 12px;&quot;&gt;&lt;b style=&quot;&quot;&gt;COHERENT INTERCONNECT&lt;/b&gt;&lt;/font&gt;" style="rounded=0;whiteSpace=wrap;html=1;fillColor=#F6D6C2;strokeColor=#D47264;fontSize=15;" parent="1" vertex="1">
          <mxGeometry x="197" y="833" width="471" height="40" as="geometry" />
        </mxCell>
        <mxCell id="SvVKt492CZ6028g6mfod-102" style="edgeStyle=none;html=1;exitX=0.75;exitY=0;exitDx=0;exitDy=0;entryX=0.5;entryY=1;entryDx=0;entryDy=0;fontSize=10;endSize=2;" parent="1" edge="1">
          <mxGeometry relative="1" as="geometry">
            <mxPoint x="247.88" y="790" as="sourcePoint" />
            <mxPoint x="247.88" y="760" as="targetPoint" />
          </mxGeometry>
        </mxCell>
        <mxCell id="SvVKt492CZ6028g6mfod-109" value="&lt;b&gt;OFFLINE&amp;nbsp;&lt;/b&gt;&lt;div&gt;&lt;b&gt;COMPRESSION&lt;/b&gt;&lt;/div&gt;" style="text;html=1;align=center;verticalAlign=middle;resizable=0;points=[];autosize=1;strokeColor=none;fillColor=none;" parent="1" vertex="1">
          <mxGeometry x="554" y="1004" width="110" height="40" as="geometry" />
        </mxCell>
        <mxCell id="SvVKt492CZ6028g6mfod-125" value="&lt;b&gt;&lt;font&gt;MEMORY&lt;/font&gt;&lt;/b&gt;" style="shape=cylinder3;whiteSpace=wrap;html=1;boundedLbl=1;backgroundOutline=1;size=15;fillColor=light-dark(#ededed, #ededed);" parent="1" vertex="1">
          <mxGeometry x="471" y="890" width="60" height="60" as="geometry" />
        </mxCell>
        <mxCell id="SvVKt492CZ6028g6mfod-126" style="edgeStyle=orthogonalEdgeStyle;rounded=0;orthogonalLoop=1;jettySize=auto;html=1;" parent="1" edge="1">
          <mxGeometry relative="1" as="geometry">
            <mxPoint x="501" y="873" as="targetPoint" />
            <mxPoint x="501" y="890" as="sourcePoint" />
          </mxGeometry>
        </mxCell>
        <mxCell id="fLmIZQSv84yg8my2Koo1-16" value="" style="edgeStyle=orthogonalEdgeStyle;rounded=0;orthogonalLoop=1;jettySize=auto;html=1;entryX=0.156;entryY=1.007;entryDx=0;entryDy=0;entryPerimeter=0;" parent="1" source="fLmIZQSv84yg8my2Koo1-15" target="fLmIZQSv84yg8my2Koo1-3" edge="1">
          <mxGeometry relative="1" as="geometry" />
        </mxCell>
        <mxCell id="fLmIZQSv84yg8my2Koo1-15" value="&lt;p style=&quot;line-height: 460%; font-size: 10px;&quot;&gt;&lt;span style=&quot;font-size: 10px;&quot;&gt;&lt;b&gt;L1 CACHE&lt;/b&gt;&lt;/span&gt;&lt;/p&gt;" style="rounded=0;whiteSpace=wrap;html=1;fillColor=light-dark(#ededed, #1f2f1e);strokeColor=light-dark(#030303, #446e2c);fontSize=10;" parent="1" vertex="1">
          <mxGeometry x="345" y="790" width="70" height="30" as="geometry" />
        </mxCell>
        <mxCell id="fLmIZQSv84yg8my2Koo1-19" style="edgeStyle=orthogonalEdgeStyle;rounded=0;orthogonalLoop=1;jettySize=auto;html=1;exitX=0.108;exitY=-0.015;exitDx=0;exitDy=0;exitPerimeter=0;" parent="1" edge="1">
          <mxGeometry relative="1" as="geometry">
            <mxPoint x="248" y="820" as="targetPoint" />
            <mxPoint x="247.868" y="832.4" as="sourcePoint" />
          </mxGeometry>
        </mxCell>
        <mxCell id="fLmIZQSv84yg8my2Koo1-20" style="edgeStyle=orthogonalEdgeStyle;rounded=0;orthogonalLoop=1;jettySize=auto;html=1;exitX=0.108;exitY=-0.015;exitDx=0;exitDy=0;exitPerimeter=0;" parent="1" edge="1">
          <mxGeometry relative="1" as="geometry">
            <mxPoint x="380" y="820" as="targetPoint" />
            <mxPoint x="380" y="832" as="sourcePoint" />
            <Array as="points">
              <mxPoint x="380" y="830" />
              <mxPoint x="380" y="830" />
            </Array>
          </mxGeometry>
        </mxCell>
        <mxCell id="fLmIZQSv84yg8my2Koo1-22" style="edgeStyle=orthogonalEdgeStyle;rounded=0;orthogonalLoop=1;jettySize=auto;html=1;exitX=0.5;exitY=0;exitDx=0;exitDy=0;" parent="1" source="SvVKt492CZ6028g6mfod-81" edge="1">
          <mxGeometry relative="1" as="geometry">
            <mxPoint x="353.8" y="873" as="targetPoint" />
            <mxPoint x="354" y="920" as="sourcePoint" />
          </mxGeometry>
        </mxCell>
        <mxCell id="fLmIZQSv84yg8my2Koo1-27" style="edgeStyle=orthogonalEdgeStyle;rounded=0;orthogonalLoop=1;jettySize=auto;html=1;exitX=0.5;exitY=0;exitDx=0;exitDy=0;" parent="1" source="fLmIZQSv84yg8my2Koo1-25" edge="1">
          <mxGeometry relative="1" as="geometry">
            <mxPoint x="501" y="1020" as="targetPoint" />
          </mxGeometry>
        </mxCell>
        <mxCell id="fLmIZQSv84yg8my2Koo1-25" value="&lt;b&gt;&amp;nbsp; LOW&amp;nbsp; &amp;nbsp; &amp;nbsp;POWER&amp;nbsp; &amp;nbsp;(&lt;span style=&quot;font-size: 10px;&quot;&gt;transform&lt;/span&gt;)&amp;nbsp;&lt;/b&gt;" style="rounded=0;whiteSpace=wrap;html=1;fillColor=#f0a30a;align=center;fontColor=#000000;strokeColor=#BD7000;" parent="1" vertex="1">
          <mxGeometry x="473" y="1034" width="57" height="43" as="geometry" />
        </mxCell>
        <mxCell id="fLmIZQSv84yg8my2Koo1-26" style="edgeStyle=orthogonalEdgeStyle;rounded=0;orthogonalLoop=1;jettySize=auto;html=1;exitX=0.506;exitY=0;exitDx=0;exitDy=0;entryX=0.5;entryY=1;entryDx=0;entryDy=0;entryPerimeter=0;exitPerimeter=0;" parent="1" source="fLmIZQSv84yg8my2Koo1-39" target="SvVKt492CZ6028g6mfod-125" edge="1">
          <mxGeometry relative="1" as="geometry">
            <mxPoint x="501" y="960" as="sourcePoint" />
          </mxGeometry>
        </mxCell>
        <mxCell id="fLmIZQSv84yg8my2Koo1-39" value="&lt;b&gt;ENCODER&lt;/b&gt;" style="whiteSpace=wrap;html=1;fillColor=#e1d5e7;strokeColor=#9673a6;" parent="1" vertex="1">
          <mxGeometry x="456.5" y="963" width="88" height="60" as="geometry" />
        </mxCell>
        <mxCell id="fLmIZQSv84yg8my2Koo1-40" value="" style="endArrow=none;dashed=1;html=1;rounded=0;" parent="1" edge="1">
          <mxGeometry width="50" height="50" relative="1" as="geometry">
            <mxPoint x="438.25" y="960" as="sourcePoint" />
            <mxPoint x="560" y="960" as="targetPoint" />
          </mxGeometry>
        </mxCell>
        <mxCell id="fLmIZQSv84yg8my2Koo1-41" value="" style="endArrow=none;dashed=1;html=1;rounded=0;" parent="1" edge="1">
          <mxGeometry width="50" height="50" relative="1" as="geometry">
            <mxPoint x="438" y="1080" as="sourcePoint" />
            <mxPoint x="438" y="960" as="targetPoint" />
          </mxGeometry>
        </mxCell>
        <mxCell id="fLmIZQSv84yg8my2Koo1-42" value="" style="endArrow=none;dashed=1;html=1;rounded=0;" parent="1" edge="1">
          <mxGeometry width="50" height="50" relative="1" as="geometry">
            <mxPoint x="438.25" y="1080" as="sourcePoint" />
            <mxPoint x="560" y="1080" as="targetPoint" />
          </mxGeometry>
        </mxCell>
        <mxCell id="fLmIZQSv84yg8my2Koo1-43" value="" style="endArrow=none;dashed=1;html=1;rounded=0;" parent="1" edge="1">
          <mxGeometry width="50" height="50" relative="1" as="geometry">
            <mxPoint x="560" y="1080" as="sourcePoint" />
            <mxPoint x="560" y="959" as="targetPoint" />
          </mxGeometry>
        </mxCell>
        <mxCell id="fLmIZQSv84yg8my2Koo1-3" value="" style="whiteSpace=wrap;html=1;strokeColor=light-dark(#127d37, #ededed);fillColor=light-dark(#caf2d6, #ededed);" parent="1" vertex="1">
          <mxGeometry x="333" y="570" width="302" height="190" as="geometry" />
        </mxCell>
        <mxCell id="fLmIZQSv84yg8my2Koo1-11" style="edgeStyle=orthogonalEdgeStyle;rounded=0;orthogonalLoop=1;jettySize=auto;html=1;" parent="1" edge="1">
          <mxGeometry relative="1" as="geometry">
            <mxPoint x="425" y="630" as="sourcePoint" />
            <mxPoint x="445" y="630" as="targetPoint" />
            <Array as="points">
              <mxPoint x="425" y="630" />
              <mxPoint x="451" y="630" />
            </Array>
          </mxGeometry>
        </mxCell>
        <mxCell id="fLmIZQSv84yg8my2Koo1-4" value="&lt;b&gt;SCRATCHPAD&lt;/b&gt;" style="whiteSpace=wrap;html=1;aspect=fixed;fillColor=light-dark(#cde1ec, #ededed);" parent="1" vertex="1">
          <mxGeometry x="335" y="589" width="90" height="90" as="geometry" />
        </mxCell>
        <mxCell id="fLmIZQSv84yg8my2Koo1-9" style="edgeStyle=orthogonalEdgeStyle;rounded=0;orthogonalLoop=1;jettySize=auto;html=1;exitX=0.5;exitY=0;exitDx=0;exitDy=0;entryX=0.5;entryY=1;entryDx=0;entryDy=0;" parent="1" source="fLmIZQSv84yg8my2Koo1-5" target="fLmIZQSv84yg8my2Koo1-4" edge="1">
          <mxGeometry relative="1" as="geometry" />
        </mxCell>
        <mxCell id="fLmIZQSv84yg8my2Koo1-5" value="&lt;b&gt;DECODER&lt;/b&gt;" style="whiteSpace=wrap;html=1;fillColor=#e1d5e7;strokeColor=#9673a6;" parent="1" vertex="1">
          <mxGeometry x="336" y="694" width="88" height="60" as="geometry" />
        </mxCell>
        <mxCell id="fLmIZQSv84yg8my2Koo1-6" value="&lt;b&gt;&amp;nbsp; LOW&amp;nbsp; &amp;nbsp; &amp;nbsp;POWER&amp;nbsp; &amp;nbsp;(&lt;font style=&quot;font-size: 10px;&quot;&gt;reversion&lt;/font&gt;)&amp;nbsp;&lt;/b&gt;" style="rounded=0;whiteSpace=wrap;html=1;fillColor=#f0a30a;align=center;fontColor=#000000;strokeColor=#BD7000;" parent="1" vertex="1">
          <mxGeometry x="446" y="608" width="57" height="46" as="geometry" />
        </mxCell>
        <mxCell id="fLmIZQSv84yg8my2Koo1-7" value="&lt;b&gt;PROCESSING ELEMENT&lt;/b&gt;" style="whiteSpace=wrap;html=1;fillColor=light-dark(#cde1ec, #ededed);" parent="1" vertex="1">
          <mxGeometry x="526" y="588" width="102" height="160" as="geometry" />
        </mxCell>
        <mxCell id="fLmIZQSv84yg8my2Koo1-8" value="&lt;b&gt;&lt;font style=&quot;font-size: 13px;&quot;&gt;ACCELERATOR 1&lt;/font&gt;&lt;/b&gt;" style="text;html=1;strokeColor=none;fillColor=none;align=center;verticalAlign=middle;whiteSpace=wrap;rounded=0;fontSize=15;" parent="1" vertex="1">
          <mxGeometry x="411" y="564" width="130" height="30" as="geometry" />
        </mxCell>
        <mxCell id="fLmIZQSv84yg8my2Koo1-23" style="edgeStyle=orthogonalEdgeStyle;rounded=0;orthogonalLoop=1;jettySize=auto;html=1;exitX=0.108;exitY=-0.015;exitDx=0;exitDy=0;exitPerimeter=0;" parent="1" edge="1">
          <mxGeometry relative="1" as="geometry">
            <mxPoint x="477.01" y="558" as="targetPoint" />
            <mxPoint x="477.01" y="570" as="sourcePoint" />
            <Array as="points">
              <mxPoint x="477.01" y="568" />
              <mxPoint x="477.01" y="568" />
            </Array>
          </mxGeometry>
        </mxCell>
        <mxCell id="fLmIZQSv84yg8my2Koo1-45" style="edgeStyle=orthogonalEdgeStyle;rounded=0;orthogonalLoop=1;jettySize=auto;html=1;exitX=1;exitY=0.5;exitDx=0;exitDy=0;entryX=0;entryY=0.271;entryDx=0;entryDy=0;entryPerimeter=0;" parent="1" source="fLmIZQSv84yg8my2Koo1-6" target="fLmIZQSv84yg8my2Koo1-7" edge="1">
          <mxGeometry relative="1" as="geometry" />
        </mxCell>
      </root>
    </mxGraphModel>
  </diagram>
</mxfile>
